<svg id="maturity-rating-501" viewBox="0 0 100 100" class="svg-icon svg-icon-maturity-rating-501 "><path id="Fill-41" fill="#D7262D" d="M92.06 0H7.594A7.592 7.592 0 000 7.592V92.06a7.594 7.594 0 007.594 7.594H92.06c4.199 0 7.594-3.4 7.594-7.594V7.592A7.59 7.59 0 0092.06 0"></path>
<path id="Shape" fill="#FFFEFD" d="M30.596 27.01h7.828v46.465h-8.929V38.928a14.121 14.121 0 01-2.52 2.085A14.722 14.722 0 0124 42.477v-8.335c1.595-.913 2.947-1.965 4.058-3.16a12.723 12.723 0 002.538-3.972zm35.248 28.73c0-2.36-.162-3.894-.482-4.603-.32-.708-.904-1.062-1.745-1.062-.844 0-1.428.403-1.76 1.208-.333.804-.502 2.29-.502 4.457v6.373c0 2.36.161 3.895.484 4.602.32.708.914 1.062 1.778 1.062.82 0 1.397-.385 1.73-1.158.332-.772.497-2.274.497-4.506V55.74zm9.605-18.475v.483h-9.605v-.483c0-2.36-.162-3.894-.482-4.602-.32-.708-.904-1.063-1.745-1.063-.844 0-1.428.408-1.76 1.223-.333.817-.502 2.296-.502 4.442v9.302c.844-1.073 1.79-1.867 2.843-2.382 1.054-.516 2.266-.773 3.641-.773 2.659 0 4.602.821 5.833 2.462 1.23 1.642 1.843 4.265 1.843 7.871v4.956c0 5.6-.87 9.463-2.608 11.586-1.74 2.125-4.815 3.188-9.223 3.188-4.434 0-7.517-1.057-9.258-3.17-1.74-2.115-2.608-5.983-2.608-11.604V40.71c0-5.6.868-9.452 2.608-11.555C56.167 27.052 59.25 26 63.684 26c4.453 0 7.527.8 9.223 2.397 1.694 1.6 2.542 4.556 2.542 8.868z"></path></svg>